P3
64 64
255
127 132 255 138 128 255 135 125 255 119 123 255 118 121 254 130 118 255 
133 121 255 123 126 255 130 124 255 133 126 255 133 126 255 126 127 253 
118 128 251 119 129 253 124 124 254 130 120 255 120 128 252 132 130 255 
142 131 255 134 131 255 121 131 255 116 130 253 126 125 253 137 119 253 
130 123 255 129 118 255 132 118 255 134 120 255 130 120 251 126 120 252 
128 122 254 128 120 255 143 120 255 125 122 255 114 125 251 121 129 254 
138 129 255 141 125 255 131 130 255 121 137 255 121 130 251 125 129 254 
128 125 254 128 121 253 126 119 251 125 122 251 123 127 252 120 128 252 
126 134 255 131 130 255 126 130 255 117 134 252 123 133 254 139 128 255 
140 124 255 126 125 253 126 121 250 132 127 255 135 130 255 129 131 252 
125 134 253 129 139 255 131 140 255 130 134 255 119 123 249 130 120 253 
129 121 255 120 123 254 120 125 255 131 124 255 132 125 255 124 129 255 
129 128 255 132 130 255 135 130 255 131 132 255 124 134 255 125 135 255 
128 132 255 131 128 255 118 126 251 128 125 254 133 123 254 126 123 252 
117 127 251 118 129 253 128 127 255 140 124 255 124 124 255 124 121 252 
129 122 254 131 124 254 127 124 253 126 127 254 131 130 255 133 130 255 
135 121 255 124 121 252 119 124 250 125 129 255 134 129 255 135 126 255 
127 126 253 122 130 255 125 129 254 128 129 255 129 126 255 128 122 254 
127 121 253 127 124 253 127 128 255 125 129 254 134 133 255 132 129 255 
129 130 255 126 135 255 131 135 255 135 130 255 129 124 253 117 121 247 
124 125 252 130 129 255 132 130 255 128 130 253 124 130 252 124 130 254 
125 126 252 123 120 249 119 120 247 126 119 249 127 122 251 123 127 253 
125 130 255 132 130 255 131 129 254 123 132 253 130 135 253 133 133 255 
133 131 255 129 128 255 125 130 255 123 131 255 125 131 255 125 129 252 
121 129 254 128 125 254 129 122 252 124 121 250 117 127 251 120 131 255 
131 130 255 140 127 255 123 131 255 125 129 254 131 130 255 132 134 255 
126 130 255 124 130 254 128 132 255 130 131 255 124 123 253 123 122 252 
125 124 252 130 128 255 131 129 255 128 127 255 126 125 253 127 126 255 
131 128 255 131 130 255 130 129 255 128 127 255 126 125 255 127 126 255 
128 127 255 129 126 255 139 129 255 127 126 254 123 124 250 131 126 254 
136 129 255 130 131 255 122 130 255 121 129 255 127 131 255 130 131 255 
132 131 255 131 130 255 127 128 254 123 124 251 122 119 250 123 116 248 
128 127 254 129 127 254 129 127 254 128 132 255 130 134 255 129 133 255 
128 133 253 123 132 251 131 136 253 131 131 253 127 124 253 123 119 255 
121 119 254 121 121 253 122 126 251 124 128 251 124 129 255 130 129 255 
133 128 255 128 127 255 122 130 255 122 132 255 128 129 255 135 125 255 
126 137 255 129 135 255 136 138 255 135 140 255 128 134 255 123 129 251 
124 128 253 126 125 252 119 130 255 126 127 254 134 124 255 135 128 255 
129 130 255 123 128 254 126 125 255 132 122 255 130 123 255 127 124 255 
126 125 255 123 126 255 123 126 255 127 126 255 129 126 255 132 125 255 
134 124 255 118 123 249 117 122 248 133 122 252 138 125 255 126 130 255 
122 132 255 129 132 255 131 132 255 132 130 255 134 129 255 133 130 255 
129 129 255 124 124 254 124 122 255 129 123 255 137 135 255 131 132 255 
130 132 255 133 133 255 133 135 255 128 134 254 124 133 252 127 133 253 
131 129 252 127 125 252 123 120 253 123 116 254 125 116 255 127 121 255 
127 126 255 128 129 255 123 127 253 129 128 255 132 129 255 129 128 255 
123 129 253 121 129 253 127 128 254 131 126 254 129 136 253 129 134 254 
135 135 255 135 137 255 127 131 254 124 128 251 129 129 253 132 127 255 
117 135 255 127 131 255 138 127 255 137 128 255 128 129 255 122 127 253 
125 124 254 131 121 254 124 116 251 121 118 249 121 121 251 121 125 251 
123 127 253 126 127 254 129 126 255 133 126 255 126 125 253 117 128 252 
121 131 254 140 131 255 143 127 255 126 125 252 119 124 250 127 124 253 
134 129 255 131 124 253 132 122 253 130 124 255 125 125 255 120 125 255 
121 126 255 127 130 255 138 133 255 127 131 255 125 131 253 133 131 255 
133 131 255 123 132 253 123 131 255 132 131 255 132 125 255 126 123 254 
124 122 255 126 122 255 130 122 255 131 123 255 130 124 255 127 126 254 
122 126 252 128 127 255 130 129 255 127 128 254 124 128 251 125 131 253 
129 133 255 133 133 255 134 136 255 132 130 255 132 130 255 131 129 255 
124 125 251 124 125 251 131 129 254 136 130 255 112 130 254 122 127 255 
131 124 254 134 125 254 129 127 254 125 129 255 128 129 255 132 126 255 
128 125 255 126 125 255 125 126 253 125 129 254 126 130 255 127 128 254 
128 127 254 129 127 254 127 131 255 124 134 255 127 137 255 135 135 255 
135 129 255 126 124 251 124 123 250 129 126 255 134 129 255 131 124 253 
130 120 251 127 121 253 122 122 252 116 124 251 119 127 254 125 130 255 
133 128 255 123 129 253 121 129 253 135 130 255 134 129 255 120 128 253 
119 127 254 132 126 255 132 125 255 126 125 255 120 128 253 123 131 255 
130 131 255 130 128 255 128 126 253 125 126 252 127 128 254 129 130 255 
130 130 254 128 130 253 127 132 252 130 135 255 132 137 255 133 138 255 
133 132 255 129 127 254 130 125 254 126 125 255 120 124 250 122 126 252 
130 129 255 134 129 255 113 126 254 118 126 253 125 124 252 131 124 254 
132 125 254 131 129 255 129 130 255 127 131 255 132 132 255 130 130 255 
129 130 255 131 133 255 131 133 255 129 131 254 128 130 253 128 130 253 
131 132 255 133 133 255 129 133 255 123 134 252 123 129 249 128 126 251 
131 131 255 129 137 255 125 131 255 127 128 254 128 125 254 127 124 255 
124 124 254 123 126 255 124 128 254 128 129 255 132 125 255 119 127 251 
122 130 254 136 129 255 134 127 255 117 125 252 117 121 254 131 120 255 
132 125 255 123 127 253 116 131 250 119 136 250 127 136 253 132 134 253 
133 133 253 130 135 255 129 131 254 130 132 255 130 132 255 130 132 253 
132 134 253 132 137 255 130 137 253 127 134 250 126 125 253 123 120 251 
125 122 253 125 125 255 122 127 255 124 129 255 130 131 255 133 131 255 
121 130 255 122 129 255 127 127 255 131 126 255 135 126 255 132 125 254 
125 126 252 118 126 250 122 127 255 121 126 252 123 127 252 129 131 252 
131 133 254 129 134 254 127 133 253 128 134 255 132 127 253 138 127 255 
132 132 254 120 137 253 119 136 252 130 132 253 131 133 255 121 138 255 
115 131 252 120 130 254 125 129 255 128 127 255 128 127 255 129 128 255 
131 129 255 134 128 254 128 122 254 133 123 255 134 122 255 132 122 255 
127 124 255 125 128 255 124 128 255 123 126 255 131 123 255 128 121 253 
130 123 253 128 128 252 124 130 250 125 136 252 130 140 255 132 138 252 
124 139 255 123 137 255 123 133 255 128 127 255 137 124 255 142 124 255 
134 124 255 123 121 254 123 120 249 124 125 252 126 127 254 126 125 253 
130 125 254 132 125 255 130 125 254 124 123 251 124 124 248 130 134 255 
131 139 255 127 135 255 127 128 254 128 127 255 127 126 254 123 122 250 
125 129 254 127 128 254 129 128 255 130 129 255 131 130 255 129 130 255 
125 131 255 123 129 253 130 129 255 128 125 254 127 122 251 128 121 251 
130 123 253 131 126 255 126 125 253 122 123 250 119 118 255 127 120 255 
140 123 255 132 129 255 119 135 255 133 135 255 139 133 255 117 137 250 
122 127 253 128 127 255 130 125 254 128 122 254 125 122 253 124 124 254 
125 125 255 124 124 255 129 128 255 129 127 254 134 129 255 133 132 255 
129 133 255 129 133 255 131 130 255 131 126 254 123 127 252 122 130 254 
124 130 254 126 125 253 132 121 252 131 119 253 122 119 250 114 119 249 
129 126 255 128 129 255 125 129 255 126 127 254 128 125 254 131 126 255 
128 125 254 125 124 252 125 123 250 126 127 253 124 130 254 122 127 253 
124 125 252 129 126 255 129 128 255 127 127 255 132 133 255 132 131 255 
131 130 255 131 129 255 129 128 255 129 128 255 126 130 255 127 131 255 
125 126 253 125 124 252 124 121 250 127 122 251 129 124 253 129 124 253 
125 124 252 122 123 250 116 124 251 125 125 255 137 125 255 129 126 255 
116 127 251 127 124 253 136 123 255 119 127 251 123 135 255 124 134 255 
127 131 255 126 127 253 125 124 252 126 125 253 125 126 253 125 126 253 
128 133 251 129 129 251 133 131 255 134 132 255 129 128 255 128 125 255 
132 121 255 130 115 255 124 119 247 126 125 252 128 129 255 130 127 255 
133 126 255 132 125 255 125 128 255 118 132 255 134 133 255 131 132 255 
125 129 255 123 127 253 127 126 254 129 126 255 128 127 255 124 125 252 
134 129 255 127 126 254 121 125 251 121 125 251 126 125 255 128 125 255 
127 126 255 125 125 255 129 126 255 129 126 255 132 127 255 131 126 255 
129 126 255 130 127 255 131 130 255 133 132 255 122 127 253 123 127 253 
126 125 253 129 126 255 131 128 255 130 127 255 128 127 255 126 127 254 
120 130 251 124 132 255 136 129 255 131 126 255 116 124 251 126 120 252 
138 120 255 126 124 255 126 136 255 125 135 255 124 133 254 126 130 253 
128 129 255 129 130 255 125 131 255 122 130 254 129 131 254 128 126 253 
130 125 253 129 124 253 123 120 253 123 119 255 130 119 255 131 116 255 
126 119 248 124 123 250 124 128 254 128 127 255 133 126 255 134 127 255 
130 130 255 125 134 255 134 131 255 129 130 255 122 127 253 122 126 252 
126 127 254 128 127 255 128 127 255 125 126 253 137 130 255 129 126 255 
125 125 255 127 127 255 131 128 255 129 126 255 125 124 254 122 125 254 
124 119 248 127 122 251 130 125 254 131 126 255 130 125 254 130 125 254 
131 126 255 131 128 255 119 127 252 122 127 253 125 129 255 130 131 255 
131 130 255 130 129 255 129 128 255 128 129 255 124 130 254 122 132 255 
134 129 255 135 125 255 121 126 252 128 125 254 140 126 255 132 129 255 
131 130 255 125 129 254 122 128 252 125 129 254 132 132 255 132 134 255 
123 133 254 114 133 251 130 124 255 128 120 255 128 121 253 125 119 251 
120 119 249 122 122 252 129 126 255 133 126 255 133 132 255 127 131 255 
122 130 255 124 128 254 131 126 255 134 124 255 131 125 255 127 127 255 
132 127 255 125 126 253 120 125 251 122 127 253 128 129 255 130 129 255 
128 127 255 126 127 254 132 125 255 126 123 254 123 123 253 128 127 255 
131 128 255 129 126 255 127 126 255 125 128 255 129 124 253 131 126 255 
132 127 255 131 126 255 129 124 253 128 123 252 128 123 252 129 124 253 
119 127 252 119 127 252 123 128 254 127 131 255 128 129 255 124 125 252 
123 124 251 124 125 252 125 122 255 117 124 254 129 123 255 135 122 254 
123 127 252 127 131 254 136 131 255 130 132 253 135 125 255 126 123 252 
121 125 251 127 128 255 136 131 255 134 132 255 124 132 255 114 133 253 
127 123 255 127 121 255 131 123 255 129 126 255 124 125 252 125 129 254 
131 133 255 133 131 254 137 138 255 126 134 255 120 130 254 123 128 254 
131 126 255 136 125 255 133 123 254 127 124 253 130 123 253 125 124 252 
122 126 252 124 129 255 130 131 255 131 130 255 129 128 255 127 128 255 
127 124 255 124 123 253 122 122 252 125 124 254 126 123 252 126 123 252 
126 127 254 126 131 255 133 130 255 132 129 255 130 129 255 129 128 255 
127 126 254 128 125 254 132 127 255 134 129 255 127 133 255 126 132 255 
126 132 255 129 133 255 127 131 255 125 126 252 124 125 251 125 126 252 
127 121 255 115 124 253 124 123 253 135 122 254 124 128 253 123 133 254 
131 131 253 127 129 248 132 122 255 125 122 253 120 123 252 128 125 255 
136 124 255 136 125 255 127 126 254 120 130 254 123 128 254 124 128 254 
131 132 255 132 133 255 127 131 254 127 131 254 132 132 255 134 128 254 
131 126 255 121 125 251 114 124 248 120 125 251 128 125 254 131 124 254 
128 123 252 124 123 251 133 123 254 127 124 253 124 128 254 127 131 255 
130 131 255 130 127 255 128 125 254 127 126 254 128 128 255 124 128 254 
122 126 252 123 124 251 126 123 252 127 125 252 127 128 254 125 131 255 
132 131 255 130 131 255 129 130 255 126 130 255 128 129 255 130 129 255 
133 131 255 135 133 255 131 135 255 128 132 255 127 131 255 130 134 255 
129 133 255 126 130 255 128 129 255 130 131 255 129 130 255 114 134 255 
126 132 255 139 126 255 128 129 255 122 132 255 130 129 255 131 126 254 
126 118 255 120 120 254 119 122 253 124 121 254 133 116 254 135 114 251 
129 117 251 124 124 254 119 136 250 122 135 250 128 137 255 130 136 255 
125 131 253 127 128 254 132 127 255 134 123 253 134 123 254 126 123 252 
121 126 252 125 130 255 132 131 255 133 128 255 127 126 254 123 127 253 
135 124 255 130 125 254 127 128 255 127 131 255 128 129 255 127 124 253 
125 122 251 125 124 252 127 131 255 125 130 255 124 129 255 127 128 254 
131 129 255 134 132 255 131 133 255 127 133 255 131 132 255 128 132 255 
127 131 255 126 132 255 127 131 255 129 130 255 129 128 255 129 127 254 
126 127 253 123 124 250 122 123 249 124 128 253 126 130 255 125 129 254 
125 129 254 128 132 255 127 138 254 112 142 254 126 138 255 141 130 255 
129 128 255 122 130 255 133 127 255 137 123 255 119 128 255 125 125 255 
130 125 254 134 125 254 132 125 254 127 126 253 125 126 253 123 124 251 
115 126 252 124 123 253 134 120 255 133 121 255 125 124 252 121 126 252 
125 126 253 130 123 252 124 129 255 126 123 252 126 123 252 125 130 255 
132 133 255 136 129 255 129 128 255 115 132 250 131 129 254 133 128 254 
131 129 254 129 131 254 124 134 255 120 135 254 121 133 253 121 131 252 
126 125 255 124 125 252 123 127 252 129 131 254 136 136 255 137 135 255 
131 133 255 123 129 253 135 124 254 133 126 255 130 128 255 126 127 253 
124 128 253 125 129 254 127 128 254 126 127 254 128 126 255 126 124 255 
125 125 255 126 126 255 125 124 254 123 120 249 129 122 252 134 127 255 
119 128 255 120 128 255 124 128 253 129 129 253 132 130 253 131 131 253 
128 130 251 124 128 251 126 134 255 126 131 255 127 128 254 130 128 253 
135 130 255 134 132 255 129 133 255 124 132 255 115 126 252 124 123 253 
132 120 254 131 121 254 125 124 252 123 128 254 129 128 255 136 129 255 
129 133 255 132 127 255 125 124 252 117 125 250 121 125 250 132 125 254 
134 129 255 125 135 255 130 131 255 132 129 255 131 128 255 129 128 255 
126 130 255 126 131 255 130 134 255 135 134 255 131 130 255 129 130 255 
126 130 255 129 130 255 131 129 254 131 129 255 127 128 254 122 128 252 
130 123 255 127 121 253 125 124 254 127 126 255 128 127 255 128 125 255 
132 125 255 137 127 255 122 122 252 124 124 254 126 125 255 126 125 255 
125 124 252 127 124 253 129 126 255 130 127 255 125 128 255 128 128 255 
130 129 255 133 131 255 133 133 255 132 134 255 127 133 255 124 132 255 
127 131 255 120 130 253 118 130 250 125 131 251 137 133 255 140 136 255 
132 136 255 121 136 255 120 131 255 126 129 255 134 127 255 134 127 255 
129 128 255 126 130 255 130 129 255 135 128 255 128 127 255 134 127 255 
129 128 255 118 130 252 119 127 251 131 124 253 135 126 255 126 130 255 
126 129 255 129 128 255 130 124 255 127 121 253 122 119 250 122 119 250 
128 122 254 134 124 255 126 125 255 126 126 255 127 128 255 127 126 253 
129 124 252 128 123 251 126 125 253 124 128 254 133 129 255 129 125 255 
127 125 255 130 128 255 130 124 255 127 117 250 129 115 250 137 121 255 
122 126 252 128 129 255 130 129 255 129 126 255 129 126 255 131 130 255 
129 130 255 123 127 252 127 124 255 128 125 255 132 127 255 133 128 255 
131 129 255 128 129 255 125 130 255 123 131 255 127 124 255 119 127 252 
116 130 252 125 131 255 136 130 255 139 128 255 127 126 253 115 127 249 
118 129 253 125 130 255 133 130 255 134 131 255 131 130 255 128 129 255 
128 125 254 130 123 253 126 121 250 135 125 255 130 131 255 118 132 254 
121 131 254 134 127 255 135 124 254 125 123 250 123 126 255 127 126 255 
130 124 255 128 122 254 124 121 252 121 120 250 122 119 248 125 120 249 
121 121 253 123 123 253 125 126 253 128 125 254 130 125 254 130 123 253 
126 125 255 123 126 255 125 121 255 124 121 254 125 123 255 127 126 255 
128 125 254 128 123 252 133 124 253 138 129 255 121 129 253 126 130 255 
130 129 255 132 127 255 133 128 255 132 131 255 128 132 255 124 130 254 
124 123 253 125 124 254 127 124 253 129 124 253 127 122 251 125 122 253 
125 123 255 125 125 255 130 122 255 127 127 255 124 132 255 129 130 255 
133 126 255 132 121 252 124 118 250 116 119 248 115 125 248 121 127 251 
128 129 255 130 131 255 129 130 255 128 127 255 128 125 254 129 124 253 
133 126 255 136 127 255 126 127 253 113 127 249 118 128 251 135 128 255 
138 127 255 128 125 254 126 125 253 128 125 254 133 126 255 134 129 255 
131 132 255 129 135 255 128 134 255 128 132 255 125 128 255 125 128 255 
128 129 255 130 127 255 134 127 255 133 126 255 127 126 255 122 125 255 
123 117 249 125 122 251 126 125 253 124 125 251 125 127 250 127 131 254 
130 135 255 129 134 254 120 128 252 121 125 250 125 124 251 129 127 254 
130 128 255 129 128 255 128 129 255 126 132 255 121 129 255 124 129 255 
126 127 254 127 124 253 127 122 251 128 121 253 131 121 255 133 123 255 
123 119 255 127 124 255 130 127 255 129 126 255 126 123 252 127 121 253 
128 122 254 131 124 255 123 131 255 126 132 255 126 132 255 127 131 255 
127 128 254 127 126 254 128 127 255 129 128 255 135 128 255 135 126 255 
125 124 251 113 127 249 120 130 253 135 130 255 135 128 255 123 127 253 
125 124 252 128 123 252 129 122 252 130 125 253 129 130 255 129 135 255 
127 136 255 127 136 255 128 133 255 126 131 255 124 128 253 127 126 253 
132 127 255 132 127 255 127 127 255 122 127 255 132 127 255 134 132 255 
133 133 255 128 130 253 126 130 253 130 136 255 128 137 255 124 133 252 
128 132 255 124 128 253 125 126 252 129 128 255 128 127 255 126 123 252 
126 123 252 130 127 255 123 130 255 123 131 255 125 128 255 127 126 254 
129 124 253 130 123 253 134 122 255 135 123 255 116 121 249 126 123 252 
135 126 255 132 127 255 123 129 251 121 129 253 131 129 255 141 128 255 
131 135 255 130 136 255 127 135 255 127 133 255 127 128 254 126 127 254 
127 128 255 126 130 255 133 128 255 134 125 254 128 126 253 122 132 255 
126 134 255 133 130 255 129 126 255 116 126 250 122 122 254 125 122 255 
130 120 253 129 119 252 127 122 251 125 124 252 126 125 252 127 126 253 
123 133 255 122 130 254 122 128 252 126 126 250 131 126 254 132 127 255 
127 128 255 120 128 255 129 128 255 130 129 255 130 129 255 129 128 255 
132 131 255 135 136 255 135 136 255 132 133 255 130 131 255 130 131 255 
127 131 255 126 130 255 126 126 255 126 123 254 129 122 254 134 122 255 
125 125 255 125 125 255 125 125 255 127 126 254 128 127 254 129 127 254 
131 126 255 130 125 254 116 130 252 130 130 254 143 131 255 138 134 255 
122 137 252 117 137 252 129 131 252 142 125 253 128 130 253 126 132 254 
125 133 255 125 133 255 126 130 255 127 128 255 125 129 255 125 130 255 
134 132 255 133 126 255 128 126 253 122 132 255 126 134 255 131 128 255 
126 127 254 114 130 252 120 124 255 126 124 255 134 123 255 135 123 255 
133 121 255 131 121 254 132 122 255 135 124 255 123 133 255 122 132 253 
124 133 254 129 131 254 133 128 254 129 127 254 122 126 252 116 125 252 
132 136 255 130 131 255 127 126 254 129 126 255 131 126 255 131 124 255 
128 121 253 128 118 251 124 121 250 127 128 255 125 130 255 122 127 255 
122 125 254 128 125 255 136 124 255 139 121 255 126 120 255 126 120 254 
126 123 254 127 126 254 129 130 255 127 131 255 125 129 254 123 127 252 
116 132 253 127 133 255 136 134 255 138 133 255 131 131 255 124 129 255 
122 127 255 125 126 253 129 122 252 127 121 253 124 122 255 122 122 255 
123 123 255 125 124 252 131 126 252 134 128 250 131 132 255 129 128 255 
129 127 254 131 126 255 128 123 252 125 119 251 125 122 253 130 129 255 
124 134 255 126 132 254 130 132 251 130 135 252 126 137 253 124 133 254 
129 126 255 136 121 255 130 118 255 131 120 255 131 126 255 131 133 255 
129 135 255 125 131 255 125 125 255 128 121 255 136 125 255 130 125 254 
125 125 255 127 126 255 131 121 254 128 116 252 123 117 251 119 119 251 
128 125 255 128 122 255 129 122 254 125 122 253 120 124 250 123 131 255 
129 135 255 126 130 253 127 127 251 128 134 255 126 137 255 124 133 255 
128 128 255 132 130 255 132 132 254 129 134 252 123 133 255 130 132 255 
135 131 254 131 129 254 123 126 255 119 126 255 124 127 255 131 129 255 
133 128 255 130 127 255 127 125 255 125 125 255 126 126 255 129 128 255 
134 129 255 137 131 255 126 130 255 125 126 253 125 124 252 127 126 254 
127 126 254 123 124 251 123 123 253 125 128 255 127 133 255 132 134 255 
135 135 255 134 139 255 128 137 255 123 131 255 127 126 255 133 123 255 
120 118 251 123 120 249 128 126 253 129 131 252 126 132 252 122 131 252 
126 130 255 131 130 255 130 125 253 125 126 252 123 129 253 127 131 255 
134 131 255 137 130 255 134 131 255 131 135 255 128 127 255 124 121 252 
128 122 254 129 126 255 125 129 255 126 132 255 128 132 255 128 129 255 
135 133 255 129 133 255 121 131 254 118 126 251 123 122 249 130 125 251 
131 129 252 128 133 253 126 126 255 130 128 255 133 127 253 126 124 251 
117 122 250 115 123 250 125 126 253 135 128 255 131 130 255 129 128 255 
125 125 255 122 125 255 126 126 255 129 128 255 131 129 255 133 128 254 
126 129 255 125 125 255 125 125 255 128 128 255 127 131 255 124 128 254 
122 127 253 120 128 253 126 126 250 129 127 252 131 129 255 129 130 255 
122 128 252 119 125 249 122 121 248 127 122 248 120 131 249 126 132 252 
132 134 255 131 133 255 126 130 253 121 130 251 126 132 254 132 136 255 
132 136 255 129 135 255 126 135 255 129 135 255 133 135 255 133 133 255 
130 131 255 127 133 255 127 131 255 125 124 252 128 125 254 133 132 255 
130 131 255 125 129 255 126 127 254 128 125 254 129 124 253 124 123 250 
121 125 248 124 128 251 133 131 254 136 131 255 134 132 255 133 132 255 
126 120 254 131 124 254 135 126 255 128 127 254 118 126 253 117 125 252 
126 125 253 137 126 254 127 127 255 125 125 255 121 124 253 121 124 253 
125 126 253 127 126 254 128 126 253 129 124 252 126 124 255 125 124 254 
126 125 255 128 128 255 127 131 255 126 130 255 125 130 255 126 132 255 
134 130 253 133 128 255 129 126 255 126 125 255 123 126 255 124 128 253 
130 132 253 134 134 254 122 138 251 128 137 254 133 133 255 131 128 255 
125 124 252 120 124 249 124 128 251 130 132 253 126 132 255 126 132 255 
126 132 255 127 131 255 128 129 255 127 126 253 126 127 253 126 127 253 
124 129 255 126 127 254 131 130 255 132 131 255 127 128 255 125 126 253 
128 127 255 130 124 255 130 124 255 126 123 254 129 127 254 135 133 255 
137 135 255 131 129 255 125 122 253 123 120 253 126 120 254 134 124 255 
137 128 255 132 130 255 124 129 255 123 128 255 130 127 255 138 127 255 
126 126 255 125 125 255 125 126 253 126 127 254 128 129 255 130 129 255 
128 127 255 127 124 253 124 118 250 126 120 252 126 123 254 128 125 254 
128 127 255 127 128 254 129 130 255 132 133 255 138 132 255 132 130 255 
127 126 254 125 125 255 127 127 255 132 133 255 136 138 255 135 140 255 
125 138 253 129 135 255 132 129 255 132 124 255 129 123 255 128 125 255 
131 128 255 133 131 255 123 126 255 127 127 255 129 128 255 127 126 255 
124 123 253 123 122 252 125 122 251 126 123 252 120 125 251 128 129 255 
134 132 255 129 128 255 122 123 249 123 127 253 130 128 255 131 125 255 
128 124 255 128 122 255 129 123 255 131 126 255 128 125 254 123 122 252 
121 119 254 123 121 255 126 124 255 132 125 255 135 126 255 131 126 255 
125 125 255 122 125 255 129 126 255 137 126 255 126 124 255 126 125 255 
128 127 255 130 129 255 131 130 255 131 130 255 128 127 255 126 125 255 
132 125 254 132 127 255 131 129 255 130 128 255 127 126 253 126 125 252 
127 126 253 131 129 254 131 129 254 127 128 254 122 126 252 122 126 252 
128 127 255 132 130 255 132 132 254 127 132 250 123 131 255 127 128 255 
127 124 255 127 121 255 125 121 255 128 125 255 131 125 255 131 124 254 
126 124 255 132 126 255 135 127 255 131 125 255 126 125 255 124 124 254 
127 124 255 130 123 255 126 126 255 133 130 255 137 132 255 128 126 251 
118 122 247 121 126 252 125 128 255 122 120 255 121 119 252 126 120 254 
129 122 254 129 123 255 124 124 254 121 124 255 124 127 255 130 130 255 
125 130 255 129 127 254 132 123 250 130 120 251 122 120 253 122 122 255 
125 123 255 131 124 255 127 121 255 129 123 255 129 127 254 130 128 253 
129 129 253 128 127 254 125 125 255 123 123 255 135 133 255 134 134 255 
134 134 255 131 133 255 129 131 254 127 129 252 128 128 252 129 127 252 
129 130 255 127 133 255 123 133 255 126 132 255 132 130 255 135 130 255 
132 130 255 125 129 252 118 123 251 121 121 251 122 121 251 119 119 249 
118 121 250 121 121 251 123 120 251 126 116 249 122 121 251 128 122 254 
132 122 255 130 125 254 129 130 255 129 134 255 133 134 255 134 132 255 
129 126 255 132 126 255 135 128 255 129 127 252 122 126 249 122 130 255 
123 128 255 116 119 250 125 130 250 133 131 255 138 131 255 135 130 255 
126 130 255 120 130 254 121 129 253 124 128 253 126 136 255 131 130 255 
134 125 252 132 121 252 127 121 255 123 123 255 125 123 255 129 123 255 
128 120 255 130 123 255 131 126 254 131 126 252 128 126 251 125 124 251 
123 123 253 122 122 255 128 130 249 127 132 250 126 132 252 127 133 253 
129 135 255 130 134 255 131 133 255 131 131 255 126 130 255 124 134 255 
123 135 255 124 133 252 130 128 251 134 128 254 131 129 255 125 129 255 
121 126 255 125 128 255 127 131 255 124 132 255 124 134 255 127 135 255 
133 132 255 135 128 255 129 130 255 133 128 255 134 125 254 130 125 253 
125 131 253 124 134 255 124 130 252 124 124 246 126 118 253 125 115 248 
129 120 249 130 128 253 129 133 255 128 138 255 125 134 255 119 126 255 
126 134 245 134 135 253 138 132 255 132 130 255 125 131 255 124 136 255 
128 139 255 130 137 253 128 134 254 121 135 255 116 131 255 119 127 255 
130 126 255 132 126 255 125 131 253 121 141 254 129 135 255 128 132 255 
125 129 255 125 126 253 126 125 255 127 124 255 127 124 255 126 123 254 
136 127 254 132 121 251 132 119 251 133 123 255 131 125 255 126 125 255 
127 124 255 131 126 255 134 129 255 123 127 253 117 126 253 121 124 255 
131 121 255 140 124 255 137 127 255 125 124 252 120 127 255 122 131 255 
123 133 255 125 131 255 129 131 252 134 132 255 133 133 253 127 132 250 
125 137 255 126 132 255 127 125 252 130 120 251 132 121 252 131 124 255 
125 125 255 118 125 255 121 125 251 127 122 251 135 122 253 136 125 255 
128 126 253 120 125 251 120 128 255 128 133 255 140 131 255 133 133 255 
125 131 255 122 126 252 126 121 250 131 121 252 131 126 255 128 129 255 
129 129 253 121 129 254 116 125 252 121 121 253 133 121 255 136 120 253 
132 123 250 129 131 252 130 130 254 131 131 255 131 133 255 129 130 255 
125 129 254 123 129 253 124 129 255 125 130 255 133 128 255 132 123 252 
131 119 253 132 122 255 129 123 255 125 122 253 125 122 253 131 124 254 
135 124 255 123 120 251 116 124 251 118 127 255 121 124 253 125 119 251 
128 118 249 127 116 247 127 117 248 128 123 252 127 126 253 127 128 254 
127 131 254 131 137 255 127 139 255 122 139 255 128 138 255 129 135 255 
130 131 255 131 128 255 131 128 255 128 127 255 122 125 254 117 124 254 
125 129 255 132 127 255 138 127 255 141 130 255 131 129 255 121 126 252 
118 126 253 124 129 255 135 129 255 129 128 255 123 127 253 124 125 252 
129 123 255 133 123 254 130 125 254 128 127 254 128 129 255 122 130 255 
117 129 251 119 127 251 132 127 255 136 123 254 132 121 251 130 123 252 
129 123 247 132 128 251 133 131 254 131 133 255 125 131 253 120 130 251 
121 133 253 122 137 255 131 130 255 129 126 255 130 123 255 131 124 255 
126 123 255 124 121 252 126 120 252 133 123 255 141 125 255 131 121 254 
127 127 255 126 137 255 119 134 255 118 126 251 128 121 250 140 118 252 
128 127 254 127 131 255 126 132 255 126 130 255 129 128 255 134 129 255 
131 129 255 125 126 252 121 129 253 124 130 254 126 132 255 127 132 255 
128 132 255 126 129 255 124 127 255 121 126 254 128 132 255 132 129 255 
138 129 255 139 130 255 131 129 255 122 126 252 119 124 252 122 127 255 
130 123 253 124 121 250 122 122 252 126 126 255 133 127 255 134 127 255 
134 127 255 134 129 255 124 129 255 121 132 255 116 135 253 120 140 255 
130 143 255 131 137 255 126 130 255 125 130 255 129 122 251 132 125 254 
131 129 255 130 129 255 127 128 254 123 129 253 124 132 255 128 136 255 
127 132 255 129 129 255 130 127 255 129 126 255 126 125 255 125 122 253 
128 122 254 134 124 255 129 123 255 129 119 252 133 123 255 130 130 255 
117 131 255 114 128 251 129 127 252 142 125 255 131 136 255 128 137 255 
126 134 255 125 129 255 131 126 255 134 124 255 134 122 255 130 120 251 
122 121 248 120 124 249 122 127 253 123 131 255 122 130 255 123 128 255 
125 125 255 127 126 255 130 131 255 129 128 255 132 127 255 131 126 254 
128 126 253 124 125 252 123 127 253 125 130 255 128 122 254 123 120 251 
123 123 253 127 127 255 131 128 255 131 126 255 132 125 254 135 129 255 
126 123 255 124 128 254 121 131 252 122 137 252 127 142 255 128 140 255 
124 136 255 125 136 255 131 128 255 131 128 255 129 126 255 128 125 255 
127 124 255 128 125 255 130 127 255 132 129 255 122 130 255 125 128 255 
129 128 255 129 128 255 127 128 255 126 127 254 130 127 255 136 129 255 
119 127 254 125 122 253 133 119 254 130 120 253 121 122 249 120 128 252 
130 134 255 138 134 255 140 125 252 134 125 252 127 124 253 125 124 254 
126 125 255 130 129 255 130 130 255 126 131 255 133 126 255 129 126 255 
127 128 255 125 130 255 122 127 253 121 125 251 125 122 253 130 124 255 
130 129 255 129 128 255 128 127 254 129 127 252 129 127 254 128 127 254 
125 130 255 125 133 255 129 126 255 127 126 255 128 127 255 128 128 255 
125 125 255 122 121 249 127 120 249 134 123 251 135 121 255 134 123 254 
129 122 251 126 124 249 127 129 250 123 127 250 122 126 251 125 129 255 
131 131 255 129 127 255 125 123 255 124 121 254 126 120 254 128 121 253 
131 121 254 131 121 254 118 126 251 122 126 252 127 126 253 128 129 255 
127 131 255 128 132 255 132 133 255 135 133 255 121 135 255 126 130 255 
132 125 255 132 120 254 128 121 251 130 129 255 136 138 255 133 137 255 
134 127 255 128 125 254 123 123 253 122 122 254 124 122 255 130 124 255 
131 126 255 129 127 254 135 128 255 132 127 255 128 127 255 125 129 255 
123 127 253 122 123 250 125 122 251 131 126 255 134 129 255 132 130 255 
131 133 255 133 133 255 134 132 255 132 131 255 127 132 255 121 132 255 
128 129 255 130 131 255 133 132 255 128 132 255 122 127 253 122 126 251 
131 126 254 140 128 255 129 126 255 133 126 255 133 123 254 131 121 252 
128 123 252 123 122 249 122 121 248 127 125 252 128 128 255 126 126 255 
124 124 254 125 124 254 126 125 253 127 124 253 127 124 253 126 123 252 
122 126 252 125 126 252 128 128 252 129 131 252 128 134 254 127 136 255 
129 135 255 130 134 255 128 134 255 121 129 253 119 127 252 125 126 253 
129 122 252 133 123 254 132 127 255 127 127 251 127 132 255 122 129 255 
117 126 255 120 124 255 126 123 255 133 121 255 136 120 252 135 120 249 
129 126 255 126 125 253 125 126 253 125 129 255 125 129 255 122 126 252 
125 126 253 128 129 255 139 128 255 135 130 255 131 133 255 132 134 255 
133 133 255 132 131 255 123 131 255 115 131 253 124 130 250 130 134 255 
134 135 255 127 133 255 121 131 254 125 133 255 135 133 255 144 132 255 
111 130 251 120 130 254 126 129 255 130 128 255 131 131 255 126 130 255 
125 129 254 132 134 255 125 126 253 126 127 254 128 129 255 128 132 255 
129 133 255 128 134 255 127 133 255 127 133 255 126 130 255 130 129 255 
131 131 255 131 133 254 128 137 254 127 138 255 126 137 255 126 132 254 
137 132 255 119 127 251 112 131 252 121 135 255 131 130 255 134 123 254 
133 120 251 129 120 249 132 120 255 126 120 255 121 120 255 122 124 255 
128 128 255 133 130 255 133 131 255 132 132 252 125 129 255 123 127 253 
124 128 254 128 132 255 127 132 255 123 128 254 122 127 253 123 131 255 
140 127 255 134 129 255 128 130 253 127 129 252 129 129 253 127 128 254 
119 129 253 111 130 251 123 132 249 132 137 255 134 136 255 125 131 253 
119 131 253 123 133 255 133 131 255 138 126 254 127 127 251 127 131 254 
126 134 255 126 134 255 129 135 255 128 137 255 123 138 255 117 139 251 
118 128 251 130 125 253 133 127 253 125 134 255 124 132 255 130 125 253 
127 124 253 120 131 255 123 124 251 129 124 253 135 125 255 133 126 255 
128 127 255 127 126 254 131 124 254 136 123 255 123 132 253 120 131 249 
122 135 250 126 142 255 130 143 255 127 136 253 127 129 252 127 125 252 
131 121 252 126 123 252 124 129 255 126 135 255 130 137 254 133 133 253 
132 130 255 132 129 255 121 125 255 125 119 253 132 118 253 134 127 255 
128 134 255 119 136 254 121 133 251 127 134 251 135 129 255 132 122 255 
131 117 252 135 119 254 135 123 255 131 125 255 125 130 255 123 134 255 
130 135 253 134 136 255 131 130 255 124 123 251 122 123 250 128 127 255 
133 126 255 133 120 251 135 130 255 132 129 255 129 128 255 126 125 255 
128 125 255 131 128 255 128 132 255 125 134 255 119 133 255 130 131 255 
131 129 255 121 129 253 123 129 253 133 126 255 133 126 255 122 127 255 
129 130 255 133 128 255 136 126 255 132 125 255 126 125 252 124 125 251 
126 124 251 132 123 252 132 129 255 128 127 255 126 130 255 129 135 255 
129 135 255 124 130 252 120 125 251 121 124 253 136 127 255 129 128 255 
125 130 255 124 132 255 127 131 254 129 127 252 129 124 253 129 123 255 
119 124 252 121 120 250 126 119 251 128 122 254 125 124 254 123 123 253 
125 125 255 131 128 255 128 125 254 128 123 252 131 121 252 132 121 252 
131 121 254 126 120 252 122 122 252 120 125 253 123 129 251 125 129 254 
124 125 251 120 121 248 119 123 249 126 127 254 129 126 255 133 124 253 
132 122 255 127 119 254 123 117 253 122 114 251 128 116 254 133 119 255 
133 123 255 130 124 255 118 134 255 128 133 255 129 130 255 121 127 251 
123 127 252 134 127 255 135 125 255 123 122 252 127 128 254 130 128 255 
133 126 255 132 127 255 128 127 254 128 129 255 129 128 255 133 128 255 
130 119 255 129 118 255 128 121 253 130 125 254 127 126 254 122 126 252 
118 127 254 120 131 255 137 131 255 130 129 255 124 129 255 124 129 255 
127 128 255 129 124 253 128 123 252 129 123 255 127 128 254 123 127 253 
122 126 252 125 124 254 129 119 254 129 115 254 132 119 255 135 127 255 
124 125 251 127 128 254 129 128 255 128 125 254 128 123 252 128 123 252 
130 124 255 130 124 255 123 128 254 123 127 253 123 123 253 121 124 253 
122 127 255 124 129 255 129 130 255 132 130 255 123 120 253 120 118 251 
120 117 250 125 117 252 131 119 255 136 119 255 132 120 254 128 118 251 
119 127 254 124 127 255 127 128 255 126 127 253 127 128 255 130 127 255 
127 124 255 121 121 251 125 125 249 127 125 250 130 128 255 133 131 255 
133 132 255 132 133 255 131 132 255 130 131 255 122 118 255 125 119 255 
130 120 255 132 122 255 130 125 254 125 126 253 122 132 255 123 137 255 
133 132 252 127 128 254 121 126 255 123 125 255 128 126 255 131 125 255 
132 127 255 131 128 255 135 130 255 127 132 255 121 132 255 124 129 255 
132 122 255 134 118 253 134 122 255 132 129 255 124 130 250 128 134 255 
127 133 255 124 128 253 125 124 252 131 126 255 138 126 255 139 125 255 
126 129 255 126 124 255 127 124 255 128 127 255 127 131 255 125 130 255 
129 130 255 133 131 255 125 130 255 122 130 255 124 129 255 130 131 255 
136 131 255 137 127 255 131 124 254 124 121 250 127 121 253 124 123 253 
127 126 254 131 129 255 130 129 255 123 128 254 119 129 253 122 130 255 
130 130 254 130 130 254 130 129 255 132 130 255 133 131 255 130 129 255 
124 128 254 121 126 252 120 127 255 125 128 255 131 128 255 134 127 255 
132 127 255 127 126 253 125 131 255 125 135 255 130 130 250 125 126 252 
120 124 255 122 124 255 127 125 255 131 125 255 130 127 255 129 128 255 
135 125 255 125 129 255 119 130 254 122 132 255 130 130 254 134 128 252 
131 130 250 127 134 251 126 135 254 127 136 255 124 133 254 121 127 251 
123 124 251 129 124 253 133 121 255 131 117 252 125 123 255 125 119 253 
126 118 253 131 124 255 129 128 255 126 127 253 128 127 254 134 129 255 
123 133 255 121 132 255 122 132 255 127 133 255 133 133 255 133 131 255 
129 128 255 124 128 253 134 122 255 126 123 252 126 125 252 135 128 255 
130 130 254 118 130 252 118 134 255 127 138 255 134 133 255 130 131 255 
127 128 254 126 125 253 129 124 253 129 123 255 123 123 253 116 124 251 
119 129 253 124 129 255 129 130 255 131 129 255 131 126 254 128 126 251 
126 128 251 126 130 253 130 130 254 124 128 254 121 126 255 123 126 255 
128 127 255 127 126 253 124 125 251 120 125 251 128 121 253 124 123 251 
120 128 252 122 132 253 129 136 253 133 136 253 132 138 252 130 138 249 
125 133 255 124 132 255 123 131 255 124 129 255 128 129 255 131 128 255 
130 124 255 127 120 252 121 118 251 123 115 250 127 117 250 132 122 253 
132 127 255 129 127 254 129 127 254 134 127 255 122 125 254 119 124 250 
120 126 250 124 128 253 130 128 253 130 128 255 128 127 254 126 130 255 
136 125 255 126 127 253 125 129 254 134 128 254 134 130 253 121 133 253 
119 136 254 129 135 255 132 131 255 127 128 254 122 126 252 125 122 251 
131 121 254 132 122 255 126 123 255 119 124 254 124 123 251 126 123 252 
128 125 254 131 126 255 130 125 254 128 125 254 127 126 253 128 127 254 
126 127 254 122 125 254 121 126 254 126 130 255 131 133 254 130 132 253 
121 130 251 117 128 252 127 126 253 129 127 254 129 128 255 127 131 254 
125 134 255 129 135 255 135 133 255 141 132 255 123 131 255 120 128 253 
123 127 253 128 129 255 131 131 255 131 131 255 129 129 255 127 127 255 
123 123 253 125 122 253 131 124 254 133 126 255 132 130 255 131 131 255 
131 129 255 132 127 255 127 124 255 125 123 255 125 125 255 130 127 255 
134 127 255 132 125 255 128 125 255 127 127 255 130 125 254 122 130 254 
123 132 253 134 128 252 136 130 254 125 136 254 122 134 252 126 126 250 
130 129 255 124 128 254 122 126 252 127 124 255 135 123 255 135 123 255 
129 123 255 119 123 255 135 122 254 136 123 255 135 125 255 132 125 255 
131 125 255 129 126 255 129 126 255 128 127 255 121 121 253 119 122 253 
121 126 254 129 133 255 136 139 255 134 139 255 126 136 255 120 135 255 
127 133 253 133 131 255 136 130 255 129 128 255 121 129 254 123 128 254 
135 125 255 146 122 255 122 130 255 119 124 252 120 120 250 124 123 253 
126 125 255 123 123 253 120 125 253 120 128 255 124 132 255 131 132 255 
134 132 255 134 132 255 132 132 255 130 132 255 129 128 255 126 123 252 
124 123 251 124 123 251 126 124 251 127 126 253 130 129 255 127 131 255 
124 129 255 120 128 253 129 128 255 123 127 252 122 126 251 133 126 255 
142 126 255 137 126 255 123 132 253 113 140 255 127 136 253 124 135 253 
123 133 254 127 133 255 130 131 255 129 129 253 124 128 251 122 131 250 
125 129 252 132 132 255 134 132 255 133 128 255 133 128 255 133 130 255 
129 128 255 119 123 249 122 125 255 126 125 255 130 124 255 131 124 254 
131 124 254 128 125 255 125 128 255 123 130 255 126 130 253 129 130 255 
128 127 255 129 123 255 130 122 255 130 122 255 129 121 255 126 119 251 
123 119 255 119 124 254 123 128 255 131 128 255 129 129 255 120 131 255 
122 130 254 134 127 255 126 132 254 126 130 253 131 131 253 136 132 255 
135 130 255 128 127 254 121 125 251 119 124 252 124 133 255 127 135 255 
131 135 255 132 133 255 130 128 253 129 124 252 128 123 251 129 124 253 
132 129 255 128 129 255 126 127 254 130 125 254 136 120 253 133 120 252 
126 127 254 119 133 255 128 134 255 125 130 255 124 129 255 127 127 255 
130 127 255 132 127 255 129 128 255 128 132 255 123 127 250 127 129 252 
128 126 253 128 123 251 129 124 252 130 127 255 127 128 255 122 126 252 
123 127 253 127 126 254 132 127 255 133 126 255 132 125 254 128 125 254 
125 126 253 122 127 255 124 128 253 127 128 255 129 126 255 130 124 255 
131 124 255 133 126 255 133 128 255 132 127 255 128 122 255 119 124 252 
119 124 252 126 123 254 126 125 253 120 128 253 123 129 253 135 126 255 
125 129 254 127 128 254 129 128 255 131 129 255 132 127 255 130 125 254 
130 124 255 130 127 255 123 128 255 126 129 255 130 131 255 130 129 255 
130 128 253 129 127 252 129 127 254 131 129 255 130 125 253 128 129 255 
127 131 255 129 128 255 135 123 255 137 121 255 133 123 255 126 124 255 
126 126 255 121 124 255 120 123 255 123 121 255 128 122 255 130 123 255 
132 127 255 132 129 255 126 130 255 128 129 255 128 127 254 129 127 254 
130 128 255 130 129 255 129 130 255 126 130 255 123 127 252 127 129 252 
130 128 253 134 128 254 133 127 253 131 126 254 127 126 254 125 125 255 
126 127 254 128 127 255 129 126 255 127 124 253 129 124 253 131 126 254 
132 127 253 131 129 252 130 127 255 119 127 252 117 125 250 126 123 252 
128 125 254 124 129 255 124 128 254 133 123 254 130 129 255 130 129 255 
131 130 255 130 129 255 128 125 254 127 121 253 128 120 255 133 122 255 
129 117 253 128 116 250 128 118 249 129 124 252 131 133 255 129 138 255 
125 137 255 120 136 255 129 129 253 129 133 255 125 134 255 124 130 254 
128 125 254 136 125 255 135 123 255 132 120 254 120 123 255 118 122 255 
117 121 254 121 121 253 127 121 253 130 123 255 131 126 255 130 128 255 
124 128 253 125 126 252 127 126 254 129 128 255 129 128 255 126 125 253 
123 124 251 120 124 250 127 131 255 129 130 255 131 129 255 132 127 255 
132 125 254 130 125 254 127 124 255 125 123 255 128 127 255 127 126 255 
127 124 253 128 126 253 129 127 252 131 129 252 131 129 252 131 130 250 
131 130 255 121 133 255 118 132 254 130 131 255 133 131 255 127 132 255 
124 129 255 128 125 254 135 128 255 134 129 255 132 131 255 129 133 255 
124 129 255 121 125 251 123 122 252 125 122 253 136 122 255 134 122 255 
133 123 254 133 128 255 133 133 255 130 136 255 122 134 255 117 131 253 
136 138 255 129 138 255 121 133 251 115 127 245 120 126 248 129 127 254 
135 126 255 132 121 252 121 124 255 119 127 254 120 129 255 125 130 255 
130 129 255 132 130 255 131 129 254 129 129 253 126 127 254 126 127 254 
128 127 255 130 129 255 130 129 255 127 126 254 125 126 253 126 127 254 
129 132 255 127 130 255 128 127 255 127 124 253 128 122 254 125 122 255 
124 122 255 124 122 255 127 126 255 126 125 253 126 125 253 129 128 255 
134 134 255 137 135 255 136 134 255 134 132 255 131 132 255 120 136 255 
118 137 255 128 134 255 132 131 255 124 132 255 120 131 255 124 129 255 
137 127 252 133 127 251 129 129 251 127 133 255 124 134 255 121 133 255 
121 131 254 123 131 255 127 131 255 130 134 255 135 134 255 135 133 255 
130 128 255 128 123 251 126 123 252 127 124 253 131 133 252 127 134 251 
123 132 251 122 133 251 125 135 255 131 135 255 131 129 254 130 123 252 
125 126 253 124 129 255 123 133 255 126 135 255 130 134 255 133 133 255 
131 131 255 127 129 252 129 128 255 130 129 255 130 129 255 130 129 255 
131 130 255 132 131 255 134 133 255 135 134 255 122 125 255 122 125 255 
123 123 253 124 123 251 126 125 253 127 126 255 127 127 255 128 128 255 
130 129 255 127 126 253 126 127 253 129 131 254 134 134 255 134 134 255 
132 130 255 132 127 255 131 128 255 118 132 255 114 133 254 123 128 254 
128 125 254 123 128 254 120 131 255 123 133 255 140 132 254 134 128 252 
129 127 252 125 129 254 123 131 255 123 133 255 123 135 255 125 137 255 
122 130 254 127 133 255 133 135 255 132 130 255 129 124 252 127 120 250 
129 122 254 132 125 255 126 124 251 126 124 251 127 126 253 130 134 255 
130 138 255 130 135 255 128 129 255 126 123 252 129 124 253 127 128 255 
125 131 255 125 129 252 128 130 253 131 129 255 129 128 255 125 126 253 
125 122 253 128 125 255 128 125 255 125 122 253 125 122 251 128 125 254 
130 127 255 129 126 255 119 122 251 120 123 252 124 125 252 127 128 254 
131 133 255 130 134 255 129 135 255 128 134 255 131 133 255 129 131 254 
129 131 254 129 131 254 128 129 255 127 124 253 127 121 253 128 120 255 
134 122 255 118 126 253 112 126 251 124 123 253 133 123 254 128 127 255 
123 131 255 123 133 255 135 135 255 133 131 255 130 127 255 128 125 255 
126 123 255 124 122 255 122 125 254 125 128 255 131 126 252 131 126 252 
131 126 252 131 126 252 128 126 253 128 127 255 128 128 255 128 131 255 
134 126 255 132 122 255 127 119 254 126 123 255 122 125 254 118 123 251 
119 122 251 124 123 253 132 122 255 130 125 254 127 126 254 124 125 251 
127 125 252 131 126 255 129 126 255 126 124 255 127 121 253 132 126 255 
133 127 255 127 124 255 125 122 251 129 124 253 128 123 252 124 119 247 
124 128 254 126 130 255 129 133 255 132 137 255 134 139 255 131 138 254 
125 135 250 121 130 247 131 133 254 129 134 254 129 134 254 128 132 255 
127 128 254 125 122 253 128 120 255 133 122 255 138 117 255 120 120 252 
114 121 251 129 122 254 141 125 255 137 130 255 128 132 255 126 132 255 
123 131 255 126 129 255 129 126 255 132 121 255 130 117 255 126 113 253 
126 115 253 127 119 255 135 135 255 135 129 253 138 127 255 133 130 255 
123 133 255 122 133 255 128 129 255 132 121 252 126 120 255 119 123 255 
124 122 255 137 119 255 137 119 255 122 125 255 120 129 255 130 129 255 
128 130 253 121 127 249 119 127 251 125 129 255 133 128 255 133 128 255 
132 134 255 130 140 255 131 137 255 128 137 255 125 134 253 125 129 252 
130 130 254 133 132 255 129 133 255 122 132 255 134 128 252 135 130 255 
133 131 255 128 127 255 124 123 253 121 120 250 123 122 252 125 124 254 
126 128 251 128 133 253 128 134 254 123 135 253 119 134 251 122 134 254 
129 130 255 133 126 255 124 125 251 121 129 253 121 133 253 123 135 255 
129 135 255 132 131 255 129 124 253 124 118 250 136 124 255 133 123 254 
129 122 252 127 125 252 128 129 255 128 132 255 127 133 253 124 133 252 
128 134 254 128 128 252 132 125 254 127 126 254 119 127 252 120 128 253 
129 126 255 134 121 253 127 121 255 120 123 254 122 122 252 132 118 253 
131 119 253 121 124 253 121 129 254 132 129 255 134 136 255 131 137 255 
126 136 255 124 132 255 128 127 254 130 128 253 128 130 253 123 132 251 
127 137 255 125 137 255 123 133 254 124 130 252 130 130 254 134 132 255 
134 133 255 128 132 255 124 133 254 127 133 255 128 134 255 126 130 255 
126 125 255 128 122 254 132 122 253 135 124 255 134 127 255 136 129 255 
135 130 255 129 130 255 124 132 255 124 134 255 126 131 255 128 127 255 
133 130 255 131 132 255 127 133 255 125 131 255 127 131 255 129 130 255 
127 127 255 121 124 253 121 124 253 121 125 251 121 126 252 122 130 255 
125 135 255 126 138 255 124 139 255 123 138 255 123 134 252 124 128 251 
128 127 254 126 127 254 117 125 250 120 125 251 127 124 253 133 120 252 
131 124 254 126 127 254 124 128 254 131 126 255 128 126 253 124 128 253 
126 130 255 135 130 255 131 131 253 131 137 255 127 137 255 122 132 253 
124 128 251 129 129 253 131 129 252 127 127 249 121 131 254 120 132 254 
118 130 252 120 128 252 128 128 252 131 129 254 130 128 253 126 126 250 
125 131 255 125 131 255 125 130 255 125 128 255 126 126 255 127 126 254 
130 125 254 132 125 254 132 118 255 134 117 255 134 118 253 131 121 252 
128 127 255 126 131 255 123 131 255 121 129 255 135 128 255 132 129 255 
131 130 255 130 129 255 131 128 255 131 130 255 124 129 255 117 128 255 
128 125 254 126 123 252 124 121 250 124 121 250 125 124 252 127 126 254 
129 128 255 129 128 255 127 131 254 128 129 255 132 131 255 131 132 255 
122 130 255 120 128 253 126 127 254 128 123 252 130 125 251 129 129 253 
129 133 255 130 134 255 129 133 255 128 132 255 129 131 254 133 128 254 
125 123 250 125 126 252 123 128 254 120 128 253 123 127 253 130 127 255 
135 126 255 134 123 253 124 125 252 122 127 253 121 129 254 125 131 255 
129 130 255 130 130 254 125 127 250 120 124 247 133 122 252 131 121 252 
127 124 253 126 126 255 122 130 255 122 132 255 122 134 255 122 134 254 
127 119 254 130 118 252 133 117 252 132 119 251 129 124 253 125 129 255 
122 130 255 120 129 255 125 122 255 125 124 254 125 122 251 127 122 251 
129 122 252 130 124 255 125 128 255 119 128 255 133 128 255 132 127 255 
130 125 254 129 122 252 131 121 254 133 121 255 132 120 254 132 120 254 
133 128 255 132 127 255 135 130 255 132 132 255 125 130 255 121 130 255 
123 131 255 122 130 255 128 126 251 131 129 254 131 133 255 127 136 255 
125 134 255 129 131 254 130 128 253 132 127 253 128 122 255 123 120 253 
122 120 253 124 124 255 126 126 255 128 122 255 130 118 254 134 116 254 
135 123 255 132 126 255 129 130 255 129 133 255 130 134 255 129 133 255 
126 132 255 122 130 254 134 123 253 130 123 253 127 124 253 124 127 255 
124 132 255 125 135 255 124 136 255 122 137 255 125 133 255 131 130 255 
138 129 255 138 127 255 132 127 253 126 127 253 123 129 253 122 130 255 
121 124 255 120 123 252 119 119 249 121 116 245 125 115 246 129 119 250 
128 125 255 126 126 255 121 131 255 123 131 255 126 134 255 130 135 255 
131 134 255 131 131 255 129 128 255 127 124 255 136 127 255 131 124 254 
131 126 255 127 126 255 122 125 254 123 128 255 124 134 255 122 134 255 
129 131 254 135 130 255 133 131 255 123 131 255 122 130 254 131 126 254 
134 127 255 130 129 255 128 124 255 126 120 255 126 120 254 128 125 255 
128 126 255 125 122 255 129 118 255 134 117 255 142 121 255 134 122 255 
127 124 253 126 127 254 127 128 255 127 128 255 126 130 255 127 132 255 
129 135 255 128 134 255 125 130 255 124 129 255 124 127 255 125 126 253 
127 124 253 128 123 251 123 135 255 127 133 255 133 131 255 136 130 255 
130 128 253 124 125 251 122 126 252 123 127 253 122 127 255 124 129 255 
125 130 255 128 127 255 131 124 254 133 123 254 130 123 253 125 122 253 
123 127 253 123 127 253 125 126 253 126 125 253 126 125 253 127 124 253 
129 124 253 130 125 254 133 128 255 127 124 253 125 124 254 125 124 254 
124 123 253 127 126 255 129 130 255 125 131 255 127 133 255 136 129 255 
135 128 255 123 128 254 122 126 252 133 123 254 135 125 255 126 129 255 
119 126 255 125 125 255 131 125 255 130 127 255 127 128 255 123 126 255 
127 126 255 133 125 255 139 121 255 132 121 252 125 122 251 123 124 251 
125 124 254 127 121 253 127 121 253 129 123 255 127 137 255 125 135 255 
123 131 255 122 127 253 123 123 253 124 121 252 127 120 250 130 120 251 
123 129 253 126 125 252 130 125 253 132 127 255 129 126 255 123 123 253 
121 121 253 122 122 255 126 123 254 129 129 255 130 135 255 132 136 255 
134 133 255 133 131 255 129 127 254 124 123 251 131 124 255 129 122 252 
127 120 250 125 118 248 127 118 247 129 120 249 132 123 250 134 125 252 
131 132 255 125 129 255 125 128 255 127 127 255 129 123 255 132 125 255 
132 127 255 127 125 252 119 129 253 133 126 255 134 124 255 124 125 252 
122 122 252 132 118 253 132 120 255 120 125 255 114 128 251 127 133 255 
136 134 255 130 130 254 122 128 250 120 130 253 123 131 255 129 130 255 
139 126 255 132 127 255 128 129 255 129 129 255 130 127 255 131 121 254 
131 117 254 134 117 255 128 126 249 128 126 251 126 125 252 124 125 252 
123 126 255 125 128 255 130 130 255 133 133 255 134 129 255 133 126 255 
134 124 255 134 127 255 130 128 255 123 126 255 119 121 255 119 118 255 
135 121 255 131 126 255 125 129 255 122 128 252 122 128 250 125 129 252 
127 131 255 127 131 255 122 125 254 125 129 255 129 133 255 132 136 255 
133 137 255 132 136 255 130 136 255 129 135 255 
